<?xml version="1.0" encoding="UTF-8"?>
<svg id="_レイヤー_1" xmlns="http://www.w3.org/2000/svg" version="1.1" viewBox="0 0 1200 1200">
  <!-- Generator: Adobe Illustrator 30.0.0, SVG Export Plug-In . SVG Version: 2.1.1 Build 123)  -->
  <path d="M893,577c-44.2,89.1,26.8,318.5,158.8,305.3,172.1-17.2,89.7-148.6,23.5-176.7,0,0,42.6,40.1-8.8,68.8-106.8,59.7-208.5-75.8-173.5-197.5h0Z"/>
  <path d="M421.3,414.3s-52.1,13.2-72.2,30.4c-24,20.5-22.8,33.4-2.4,62.9,0,0,53.1-7.3,98.9-13.3-37.9-3.2-65.3-30.7-24.3-80h0Z"/>
  <path d="M398.6,348.3c-72.2,46.3-128.5,26.7-102.4-13.8,26.1-40.5,76.7-15.8,128.1-38.4,25-11,29.2-29.4,22.1-55-.5,40.2-25.3,56-93.4,54.4-79.2-2-172.9,13.4-156.5,77.6,15.9,62.3,126.5,36,209.3-20.5,82.8-56.5,129.3-25.5,126.2,4.3-2.9,27.5-39,40.6-78.8,36.8-2.8-.3-5.7-.5-8.7-.6-132.9-12.4-268.7,41.8-310,114.7-34.4,60.8,42.1,135,42.1,135,0,0,77.3-20.9,226.2-47.1,85.3-15,73.6-77.2,73.6-77.2l-102.6,13s22.3,10.5,18.5,28.5c-8.1,37.8-102.6,65.2-170.5,15.4-99.1-72.7,12.5-159,149.3-177.8,10.3-1.4,20.7-2,31.1-1.6,25.8,1.2,41.6,7.8,80.2,14.8,101.5,18.3,161.6-29.2,144.4-76.6-18.9-52.1-127.7-50.3-228.3,14.2h0Z"/>
  <path d="M502.9,800.7c31.8,10.6,106.8,6.1,106.8-49.2s-80.8-2.1-110.1-23.3c5,22,59.5,10.4,59,33.8-.4,17.8-11.8,38.7-55.6,38.7h0Z"/>
  <polygon points="401.1 521.3 612.4 513.2 401.1 505.1 401.1 505.1 401.1 505.1 401.1 505.1 401.1 505.1 189.8 513.2 401.1 521.3 401.1 521.3 401.1 521.3 401.1 521.3 401.1 521.3"/>
  <g>
    <path d="M1085.2,353.5c-.1-1.1-.2-2.1-.3-3-.8-8.1-3.6-15.6-7.8-22-8.4-1.3-16.9-1.9-25.2-1.9,10.6,0,25.6,12.1,33.3,26.9h0Z"/>
    <path d="M1106.6,335.6c-2.1,4.6-3.4,9.7-4,15-1.4,14.2-8.9,56.4-8.9,56.4,0,0-2.3-12.9-4.6-26.9-1.9,6.3-6.3,12-14.3,16.5-28.1,15.9-42.3-7.7-86.9-7.6-17.8,0-41.5,5.9-63.9,13.2-2.8.9-5.7,1.8-8.5,2.6,15.7-6.9,33.8-14.3,52.2-19.9,20.6-6.3,75.2-29.1,69.6-50.3-4.1-15.5-40.5-17.1-66.8-2.6-43,23.6-64.8,32.2-94.3,34.6-18.5,1.5-33.9-1.9-28.9-17.7,4-12.5,26.1-30.1,73.7-42.9-65.2,12.9-112.9,26.8-123.8,58.9-8.8,26.1,41.4,40.8,79.5,19.9,27.9-15.2,53.7-24,81.5-29.4,24.4-4.7,7.5,20.2-37.4,42.4-21.4,10.6-44.5,17.3-68.2,20.6-8.1,1.1-16.3,2.1-24.5,2.8-5.3.5-9.8.9-13.4,1.2-44.3,4.8-74.3,3.6-101.1-11.7-53.4-30.6,19.8-73.3,41-76-63.5,8-129.9,51.8-109.5,103.5-70.4-35.3-189.3-4.7-217.1,12.5,66.4-31.5,165.8-20.4,187,56.8,20.5,74.7-223.1,92-406.4,121.2-13.7,2.2-7,2-19.1,8.6-28.2,6.5-157.2,38.6-186.5,93-26.7,49.7,88.2,43.3,199.3-.7,116.6-46.2,329.6-91.2,415-91.2s50.4,78.7-68.1,72.6c-117.5-6.1-244.5-35.4-340.3,32.5-124.1,88,16,130.4,110.3,138.1,87.1,7.2,244.7-16.5,320.2-97.8-5.6,10.5-13.1,22.5-26.1,36.5-34.3,36.8,1.5,62,29,61.9,30.5-.1,65.4-4.8,119.1-26.6,53.7-21.8,104.2-72.8,103.2-160.6-.6-47.4,2.8-90.5,11.2-128.8,5.6-25.7,14-42,17.2-46.4,17.1-23,30.1-25.8,30.1-47.1s-9.8-31-31.6-16.8c-25.3,16.5-43.3,28-56,18-4.3-3.4-1.4-9.4,4.8-16.3,7.9-8.7,18.1-15.1,29.3-18.8,23.1-7.6,49.4-11,90.9-5.9,49.5,6.1,145.9,83.9,198.1,23.4,48.1-55.8,5.2-102.3-52.1-121.1h0ZM836.8,454.3c-20.7,15.9-39.3,33.3-39.5,43.6-.6,26.2,30.8,33.7,50,18.7,19.5-15.3,25.1-24.8,35.5-24.8s-1,23.6-11.7,56.6c-4,11-7.7,22.2-10.5,32.8-28.6,107.7-68.7,138.1-101.7,169.7-32.9,31.7-54.5,36.7-65.8,30.7s-11.9-19.4,34.2-31c46.1-11.6,34.9-40.2,18.4-54.9,13,15.5,17.2,43.6-26,43.6s-45.2-5.4-59.5,9.7c-4,4.2-7,8.7-9.7,13.5-22.8,19.3-74.2,49.8-180.2,62-101.2,11.7-240.9-15.8-202.7-67.5,45.2-61.2,186.4-41.5,290.2-37.9,21.7.8,73.7-.8,96.6-3,25.6-2.4,66.3-8.7,98-30.9,32.4-22.8,47-99.2-38.3-99-101.1.3-333.4,104-494.9,118-113,9.9-103.4-16.3-70.9-38.5,14.8-10.1,31.3-17.3,48.6-22,102-27.1,166.4-31.9,313.6-32.1,121.1-.2,198.6-52.5,184.2-111.8-.8-3.1-1.6-6.1-2.6-9-1.5-4.1-4-9.5-7.7-16.2-2.8-4.7-6-10-8.3-13.6-.9-1.3-1.8-2.7-2.8-4,0,0,9.9,10.9,20.6,26.7,26.6,7.4,60.6,1,92.4-9.9,18.4-6.3,36.2-14.3,53.4-23.4,4.5-2.4,9.4-4.9,15-7.8-7.5,4.3-13.8,8.6-17.8,11.6h0Z"/>
  </g>
  <path d="M1143.4,302.9l56.6-2.3-56.6-2.3c-25.7-1-46.3-21.7-47.4-47.4l-2.3-56.6-2.3,56.6c-1.1,25.7-21.7,46.3-47.4,47.4l-56.6,2.3,56.6,2.3c25.7,1,46.3,21.7,47.4,47.4l2.3,56.6,2.3-56.6c1.1-25.7,21.7-46.3,47.4-47.4Z"/>
  <path d="M1143.4,302.9l56.6-2.3-56.6-2.3c-25.7-1-46.3-21.7-47.4-47.4l-2.3-56.6-2.3,56.6c-1.1,25.7-21.7,46.3-47.4,47.4l-56.6,2.3,56.6,2.3c25.7,1,46.3,21.7,47.4,47.4l2.3,56.6,2.3-56.6c1.1-25.7,21.7-46.3,47.4-47.4Z"/>
</svg>