<?xml version="1.0" encoding="UTF-8"?>
<svg id="_レイヤー_2" xmlns="http://www.w3.org/2000/svg" version="1.1" viewBox="0 0 1520.9 403.7">
  <!-- Generator: Adobe Illustrator 30.0.0, SVG Export Plug-In . SVG Version: 2.1.1 Build 123)  -->
  <defs>
    <style>
      .st0 {
        fill: #fff;
      }
    </style>
  </defs>
  <g id="_レイヤー_1-2">
    <g>
      <path class="st0" d="M1501.7,273.3c50.1-48.6-8.2-78.5-59.8-72.8-36.7,4.1-85.7,18.1-131.6,35.9-33.1,11.5-210.4,88.6-230.5,117.4-13.1,18.8,26.7,14.8,54.4,4.1,28.2-10.9,48.8-32.2,54.8-23,9.9,15.3-12.3,29.3-34,39.5-17.5,8.2-46.4,1.5-53.1,18.1-2.2,7.7,18.9,11.6,35.3,11,13.3-.5,30-2.1,42.8-6.4,49.1-16.3,82.9-21.7,151.5-11-48.6-12.3-74.1-12.7-97.4-9.5-53.1,7.3-81.6,24-76.1,13.7,9.9-18.5,47.2-.8,60.4-20.4,9.8-14.5,27.1-26.9,24.2-38.5-3.7-14.9-11.4-22.6-29-19.9-37.6,5.6-56.1,33.7-64.7,24.6-1.7-1.7.6-5.8,6-11.2,112.3-89.4,225.2-29.5,231.8,15,7,46.8-50.8,47-50.8,47,0,0,110.1,20.4,99.6-42.9-3.6-21.9-24.6-41.2-54.7-54.2,54.1,8.9,98.1,5.3,120.8-16.7h0ZM1378.4,289c-53.2-21.9-133.2-24-195.7,14.2,23.5-16,57-34.6,93.5-48.6,56.5-19.4,92.5-18.7,118.4-21.3,54.2-5.5,78.5,2.3,74.5,23.8-4.7,25.6-41.1,36.9-90.8,31.9h0Z"/>
      <path class="st0" d="M1321.4,332.5c-2.9-.2-5.5-6.1-6.3-12.5h0c-.8,6.4-3.4,12.3-6.3,12.5l-64.1,2.7,64.1,4.1c2.9.2,5.5,4.6,6.3,11,.8-6.4,3.4-10.9,6.3-11l64.1-4.1-64.1-2.7Z"/>
      <path class="st0" d="M1089.3,248.5c39.6-33.8,97.4-16.5,148.5-15.9,61.3,2.6,111.6-14.8,141.4-26.8,21.2-8.5,29.7-20.8,22.1-37.9-4.3-9.6-29.2-36.9-72.2-18.3-9.7,4.2-22.8,9.4-37,14.3-.2,2-.4,4-.6,5.9,9.1-3.4,19.5-6.4,31.5-8.8,25.2-5.1,47.9,14.4,17.3,42.8-8,7.4-23,14.3-44.7,19.5-29.8,7.1-60.7,8-90.9,3.2-47.8-7.6-103-17.6-141.8,15-53.4,44.8,7.4,76.9,47.4,69,71-14,123.7-54,183.5-71-54.2,12.9-88.3,28.1-157.4,37.6-43.5,6-69.6-9.6-47.2-28.8h0Z"/>
      <path class="st0" d="M1434.7,129.4c-56-15.6-80.9-18.8-114.5-19.6-1.2,0-2.5-.2-3.8-.2-.7,0-1.4,0-2.1,0-6.6,4.1-11.9,10.1-15.5,17.1,4,.2,8,.5,11.9.9,1.4.2,2.9.3,4.3.5,18.1,2.3,40,6.3,64.8,13,39.1,10.7,93.8,50.1,112.3,38.1,16.5-10.7,8.8-62.4-43.9-78.6,9.1,12.3,26,39.7-13.5,28.7h0Z"/>
      <path class="st0" d="M1286.3,143.6l2.1,52.1,2.1-52.1c1-23.7,19.9-42.7,43.6-43.6l52.1-2.1-52.1-2.1c-23.7-1-42.7-19.9-43.6-43.6L1288.4,0l-2.1,52.1c-1,23.7-19.9,42.7-43.6,43.6l-52.1,2.1,52.1,2.1c23.7,1,42.7,19.9,43.6,43.6h0Z"/>
      <path class="st0" d="M178.4,177.9c-12.2,10.4-11.6,17-1.3,31.9l-79.9,3.1,107.7,4.1h0l107.7-4.1-107.7-4.1h0l-25.8,1c6.4-.9,28.8-3.9,48.5-6.5-19.3-1.6-33.3-15.6-12.4-40.8,0,0-26.6,6.7-36.8,15.5h0Z"/>
      <path class="st0" d="M255.1,322.4c2.6,11.2,30.3,5.3,30,17.2-.2,9.1-6,19.7-28.4,19.7,16.2,5.4,54.4,3.1,54.4-25.1s-41.2-1.1-56.1-11.9h0Z"/>
      <path class="st0" d="M556.8,123.9l1.2,28.8,1.2-28.8c.5-13.1,11-23.6,24.2-24.2l28.8-1.2-28.8-1.2c-13.1-.5-23.6-11-24.2-24.2l-1.2-28.8-1.2,28.8c-.5,13.1-11,23.6-24.2,24.2l-28.8,1.2,28.8,1.2c13.1.5,23.6,11,24.2,24.2Z"/>
      <path class="st0" d="M536.6,117.7c5.4,0,13,6.2,17,13.7,0-.6-.1-1.1-.2-1.5-.4-4.1-1.8-8-4-11.2-4.3-.7-8.6-1-12.8-1Z"/>
      <path class="st0" d="M1017.2,311c-38.8-14.4-28.2-46.8,21.9-63.8-23.2,4.4-77.1,12.2-86.7,56-9.8,44.7,82.6,1.8,77.1,45s-53.2,37.4-69.2,34c-15.9-3.4-47.7-20.3-80.6-31.7-17.7-6.2-44.7-7.7-72.4,7.8-25.5,14.2-25.4,33.2-6.8,38.1,22.1,5.9,41.4,3,61.9-7.8,0,0-44-8-19.6-20.2,12.6-6.3,51.5-7.1,86.5,6.7,27.2,10.7,103.1,52.4,131.8,6.6,15.4-24.6-6.2-56.7-44.1-70.7h0Z"/>
      <path class="st0" d="M760.4,349.1c33.5-6.3,60.8,3.2,93.8-27,33.1-30.1,35.1-108.6-3.5-127-1.2-.6-2.5-1.1-3.8-1.6,4.5-1.6,10.1-4.9,17.5-10.7,3.8-2.9,7.2-6.7,10.1-10.8h0s.1-.2.2-.4c2.3-3.4,4.2-7.1,5.5-10.8.9-2.3,1.6-4.6,1.9-6.7,0,0-.3,9.8-3.7,18.2,7.8.3,16.4-1.4,25-5.1,27.2-11.6,52-17.2,83-17.4-46.6,1.1-89.3,22.1-106.2,72.2-6.3,18.8,27.8,35.9,57,5.1,15.3-16.2,28.1-26.2,38.6-26.8,17-.9,34.8,28.1,19.7,39.7-7.6,5.9-27.4,20.9-41.7,46.8,23.1-29.4,38.4-31.4,72.4-41.8,14.9-4.6,19.1-24.8,15.1-40.1-2.9-11.2-29-32.4-47.7-21.4-18.1,10.6-31,13.7-51.8,18-13.1,2.8-34.3,4.1-31.5-7.6,3.7-15.3,16-26.5,33.9-33.5,23.5-9.2,49.8-8,72.8,2.2,2.5,1.1,5.2,2.3,8,3.6,15.9,7.3,46.1,11.9,63.1,7.8,5-1.1,10-3.3,14.7-7-2.3,4-6.2,8.2-12.5,11.8.8,4.3,2.5,7.7,5.2,9.5,18.5,12.2,58.7-33.8,111.8-50.8.2,0,.4-.1.6-.2,14.6-4.7,29.6-7.8,44.8-9.6-42.2,8.8-77,26.4-94.9,54.7-15.1,23.7,22.5,52.6,66.6,26.3,17-10.1,32.8-25.1,61.5-36.8-.2-1.9-.4-3.8-.6-5.8-22.5,7.6-46.9,14.5-64.9,16.8-18.8,2.4-21.4-14.6-17.2-24.5,4.8-11.1,18.8-19.7,39.6-25.7,11.6-3.4,23.6-5.3,35.6-6.1-3.4-6.8-8.5-12.5-14.7-16.6-25.8,1.4-50.8,5.7-96.3,17.9-39.7,10.6-37.6-12.5-13.2-26-22.7,4.5-39.2,17.8-49.9,32.6.9-4.6,3.1-8.5,5.5-11.5-8.2-11.9-22.3-21.2-33.9-23.9,9.2,14.8,6.5,22.9-12.4,33.6-14.3,8.1-158.3,15.1-171,5.8-22.1-16.2,13.6-27.7,13.6-39.4-4.3,7.2-20.5,2.9-36,9.6-2.2.9-4.3,2.2-6.3,3.8,1.3,1.4,2.5,2.8,3.7,3.9,3.2,3.2,6.2,8.5,6.2,8.5h0c-2.3-2.3-5.2-4.5-8.8-6.6-18.7-10.6-16.8-19.2-16.8-19.2,0,0-8.8,5.9-3.2,12.6,3.8,4.5,6,10.3.9,10.1-45.3-1.8-75.3,18.5-198.6,72.7-73.6,32.4-117.7,3.1,2.1-25.9,1.8-.4,7.5-1.7,22.7-5.1,20.1-4.4,36-21.6,24.1-46.4-9.6-20-44.7-20.6-62-12.3,17.9-.9,27.2,11.7,29.7,26.4,3.5,20.3-12.2,30.8-26.8,37.2-5.5,2.4-11.2,4.2-17.1,5.5-8.2,1.8-16.8,3.5-25.2,5.4,18.8-26.5-2.3-48.2-30-57.3-1,2.4-1.8,4.9-2,7.6-.7,7.2-4.5,28.7-4.5,28.7,0,0-1.2-6.6-2.3-13.7-1,3.2-3.2,6.1-7.3,8.4-14.3,8.1-21.6-3.9-44.3-3.9-9.1,0-21.1,3-32.6,6.7-1.4.5-2.9.9-4.3,1.3,8-3.5,17.2-7.3,26.6-10.1,10.5-3.2,38.3-14.8,35.5-25.7-2.1-7.9-20.6-8.7-34.1-1.3-21.9,12-33,16.4-48.1,17.6-9.4.8-17.3-.9-14.7-9,2-6.4,13.3-15.3,37.6-21.9-33.2,6.6-57.6,13.6-63.1,30-4.5,13.3,21.1,20.8,40.5,10.2,14.2-7.8,27.4-12.2,41.5-15,12.4-2.4,3.8,10.3-19,21.6-10.9,5.4-22.7,8.8-34.7,10.5-4.1.6-8.3,1.1-12.5,1.4-2.7.2-5,.4-6.8.6-22.6,2.4-37.9,1.9-51.5-5.9-27.2-15.6,10.1-37.4,20.9-38.7-32.4,4.1-66.2,26.4-55.9,52.7-35.9-18-96.5-2.4-110.7,6.4,33.8-16,84.5-10.4,95.3,28.9,8.9,32.4-79.7,43.6-163.9,55.4,15.6-3.2,34.2-6.7,55.7-10.5,43.5-7.6,37.5-39.4,37.5-39.4l-52.3,6.6s11.4,5.4,9.4,14.6c-4.1,19.3-52.3,33.2-86.9,7.8-50.5-37,6.4-81,76.1-90.7,5.2-.7,10.6-1.1,15.9-.8,13.1.6,21.2,4,40.9,7.5,51.7,9.3,82.4-14.9,73.6-39-9.6-26.6-65.1-25.6-116.4,7.2-36.8,23.6-65.5,13.6-52.2-7,13.3-20.7,39.1-8,65.3-19.6,12.8-5.6,14.9-15,11.2-28-.3,20.5-12.9,28.6-47.6,27.7-40.4-1-88.1,6.8-79.8,39.6,8.1,31.7,64.5,18.3,106.7-10.4,42.2-28.8,65.9-13,64.3,2.2-1.5,14.1-19.9,20.7-40.1,18.8-1.4-.1-2.9-.2-4.4-.3-67.8-6.3-137,21.3-158,58.5-15.9,28.2,14.9,62,20.5,67.9-22.3,5.7-74.5,21.3-87.6,45.6-13.6,25.3,45,22.1,101.6-.3,59.5-23.5,168-46.5,211.6-46.5s25.7,40.1-34.7,37c-59.9-3.1-124.6-18.1-173.5,16.5-63.3,44.8,8.2,66.5,56.2,70.4,44.4,3.7,124.7-8.4,163.2-49.9-2.9,5.4-6.7,11.5-13.3,18.6-17.5,18.8.8,31.6,14.8,31.5,15.5,0,33.3-2.4,60.7-13.5s53.1-37.1,52.6-81.9c-.3-24.2,1.4-46.1,5.7-65.7,2.9-13.1,7.1-21.4,8.8-23.6,8.7-11.7,15.4-13.1,15.4-24s-5-15.8-16.1-8.5c-12.9,8.4-22.1,14.3-28.5,9.2-2.2-1.7-.7-4.8,2.5-8.3,4-4.4,9.2-7.7,14.9-9.6,11.8-3.9,25.2-5.6,46.3-3,13.6,1.7,34.3,14.1,54.6,20.2,5.2-2.2,13.2-4.6,24.6-6.2-10.7,3.3-20.6,7.3-28.7,12.6-27.9,18.1-.7,36.4,26.8,31.4,21.3-3.9,45.2-14.2,83.9-32.2,39.8-18.5,69.9-28.3,92.8-32.7,20.5-5.1,49.5-7.4,49.5-7.4-25.6,3.8-39.8,8.6-46.9,11.3-13.9,5.6-27.7,12-40.2,18.2-74.2,36.9-106.1,64.8-120,80.7-15.7,17.9-22.5,34.5-22.9,50.1,4.7,5.4,7.4,10.6,9,14.3-7.7-9.6-17.5-17.5-26.8-21.4,0,0,21.7,20.5-4.5,35.1-54.5,30.4-106.3-38.6-88.5-100.7-22.5,45.4,13.7,162.3,81,155.6,49-4.9,57.5-28,49.6-49.9,2.3,4.5,4.8,10.6,6.6,18.1,24.3,14.9,61.4,13.1,71.2,9.4,15.8-6,18.6-18.2,43.7-27.6,21.6-8.1,51.8-10.1,75.7-17.4,20.1-6.1,45.8-38-13-38s-64.6,7.3-96.2,20.5c-32,13.4-50.4,13.6-54.1.1,0,5.7,5.5,12.3,18.6,12.3,29.6,0,81.2-37,110.4-7.7,16.5,16.6-70.1,29.7-90.9,29.5-20.8-.2-54.7-10-50-50,.1-1.2.4-2.5.6-3.8-7.1,2.9-12.7,5.5-12.7,5.5,3.5-2.7,10-6.7,16.2-10.3,15.2-9.2,48.4-26.5,86.9-29,27.2-1.8,37.7-15.4,39.7-28.7-2,.4-5.5,1.4-11.3,3.4,4.4-1.9,10.7-4.8,16-7-5.6,12.5-6,25.6,7.5,35.3,22.7,16.3,56.1-3.2,78.2-21.1,6,28.4-9.1,72.6-24.3,82.6-20.8,13.7-53.1,13.9-85.1,22.6-25.5,6.9-50,26.2-42.7,39.9,7,13,37.8,16.6,64.5,3.3-16.6-2-21.9-6.3-21.9-16s16.2-22.8,43.5-27.9h0ZM427,182.7c-10.5,8.1-20,17-20.2,22.2-.3,13.4,15.7,17.2,25.5,9.5,9.9-7.8,12.8-12.7,18.1-12.7s-.5,12-5.9,28.9c-2,5.6-3.9,11.3-5.3,16.7-14.6,54.9-35,70.4-51.8,86.5-16.8,16.1-27.8,18.7-33.6,15.7s-6.1-9.9,17.4-15.8c23.5-5.9,17.8-20.5,9.4-28,6.6,7.9,8.8,22.2-13.2,22.2s-23-2.8-30.3,5c-2,2.1-3.5,4.4-4.9,6.9-11.6,9.9-37.8,25.4-91.9,31.6-51.6,6-122.8-8-103.3-34.4,23-31.2,95-21.2,147.9-19.3,11.1.4,37.6-.4,49.3-1.5,13-1.2,33.8-4.4,49.9-15.8,16.5-11.6,24-50.6-19.5-50.5-51.5.1-169.9,53-252.3,60.2-57.6,5-52.7-8.3-36.1-19.6,7.5-5.1,16-8.8,24.8-11.2,52-13.8,84.8-16.3,159.9-16.4,61.7,0,101.2-26.8,93.9-57-.4-1.6-.8-3.1-1.3-4.6-.8-2.1-2-4.9-3.9-8.3-1.5-2.4-3.1-5.1-4.2-6.9-.5-.7-.9-1.4-1.4-2.1,0,0,5,5.6,10.5,13.6,13.6,3.8,30.9.5,47.1-5,9.4-3.2,18.4-7.3,27.2-11.9,2.3-1.2,4.8-2.5,7.6-3.9-3.8,2.2-7,4.4-9,5.9h0ZM666.2,262.6c-26.2,6.9-48.2,20.8-59,29.2,4.9-16.5,19.4-42.3,53.5-69-4.3,5.3-8.1,11.8-8.4,18.4-.4,8.4,7.6,10.1,18,7.8s32.4-17.4,34.3-11.3c1.9,6.1-4.2,15.9-38.4,24.9h0ZM746.3,220.4c-3.2,1.9-6.7,3.9-10.1,5.8-.8-9.4-5.3-17.3-10.2-18.8-13.6-4.1-19,3.8-29.8,7.4-15,5-29.5,9.1-20.1-3.1,10.8-7.3,23.2-14.5,37.3-21.5,24.3-12.1,50.3-16.5,72.5-16.2,16.4.2,31.9,6.2,45,16-30.6-2.4-61.6,16.9-71.4,23.3-1.5,2.1-2.7,4-2.7,4,0-.9,1.7-4.9,1.8-5.1,4.8-11,13.4-20,13.4-20,0,0-15.2,12.6-25.6,28.3h0ZM814.3,242.1c-14.4,5.8-30.9,8.9-44.9,2.3-10.5-4.9-14-12-13.9-19.4,17.8-5.8,39.7-9.9,55.8-2.3,5.6,2.6,9.6,7.2,12.3,13l7.4-1.7c-5.8,3.6-13.2,6.8-16.6,8.1h0Z"/>
    </g>
  </g>
</svg>